HIERARCHY
ROOT Hips
{
	OFFSET 0.00000 0.00000 0.00000
	CHANNELS 6 Xposition Yposition Zposition Zrotation Yrotation Xrotation 
	JOINT LHipJoint
	{
		OFFSET 0 0 0
		CHANNELS 3 Zrotation Yrotation Xrotation
		JOINT LeftUpLeg
		{
			OFFSET 1.81638 -1.86202 0.89635
			CHANNELS 3 Zrotation Yrotation Xrotation
			JOINT LeftLeg
			{
				OFFSET 2.63464 -7.23861 0.00000
				CHANNELS 3 Zrotation Yrotation Xrotation
				JOINT LeftFoot
				{
					OFFSET 2.45871 -6.75336 0.00000
					CHANNELS 3 Zrotation Yrotation Xrotation
					JOINT LeftToeBase
					{
						OFFSET 0.34235 -0.94059 2.20020
						CHANNELS 3 Zrotation Yrotation Xrotation
						End Site
						{
							OFFSET 0.00000 -0.00000 1.18611
						}
					}
				}
			}
		}
	}
	JOINT RHipJoint
	{
		OFFSET 0 0 0
		CHANNELS 3 Zrotation Yrotation Xrotation
		JOINT RightUpLeg
		{
			OFFSET -1.84405 -1.86203 0.89635
			CHANNELS 3 Zrotation Yrotation Xrotation
			JOINT RightLeg
			{
				OFFSET -2.71067 -7.44751 0.00000
				CHANNELS 3 Zrotation Yrotation Xrotation
				JOINT RightFoot
				{
					OFFSET -2.47159 -6.79060 0.00000
					CHANNELS 3 Zrotation Yrotation Xrotation
					JOINT RightToeBase
					{
						OFFSET -0.26223 -0.72048 2.36007
						CHANNELS 3 Zrotation Yrotation Xrotation
						End Site
						{
							OFFSET -0.00000 -0.00000 1.23343
						}
					}
				}
			}
		}
	}
	JOINT LowerBack
	{
		OFFSET 0 0 0
		CHANNELS 3 Zrotation Yrotation Xrotation
		JOINT Spine
		{
			OFFSET 0.02089 1.99248 -0.22512
			CHANNELS 3 Zrotation Yrotation Xrotation
			JOINT Spine1
			{
				OFFSET 0.01476 2.01356 -0.03079
				CHANNELS 3 Zrotation Yrotation Xrotation
				JOINT Neck
				{
					OFFSET 0 0 0
					CHANNELS 3 Zrotation Yrotation Xrotation
					JOINT Neck1
					{
						OFFSET 0.04846 1.65098 0.06663
						CHANNELS 3 Zrotation Yrotation Xrotation
						JOINT Head
						{
							OFFSET -0.06061 1.60634 -0.07565
							CHANNELS 3 Zrotation Yrotation Xrotation
							End Site
							{
								OFFSET -0.02954 1.73562 -0.03642
							}
						}
					}
				}
				JOINT LeftShoulder
				{
					OFFSET 0 0 0
					CHANNELS 3 Zrotation Yrotation Xrotation
					JOINT LeftArm
					{
						OFFSET 3.45234 1.47051 -0.06993
						CHANNELS 3 Zrotation Yrotation Xrotation
						JOINT LeftForeArm
						{
							OFFSET 5.49313 -0.00000 0.00000
							CHANNELS 3 Zrotation Yrotation Xrotation
							JOINT LeftHand
							{
								OFFSET 3.29037 -0.00000 0.00000
								CHANNELS 3 Zrotation Yrotation Xrotation
								JOINT LeftFingerBase
								{
									OFFSET 0 0 0
									CHANNELS 3 Zrotation Yrotation Xrotation
									JOINT LeftHandIndex1
									{
										OFFSET 0.72966 -0.00000 0.00000
										CHANNELS 3 Zrotation Yrotation Xrotation
										End Site
										{
											OFFSET 0.58827 -0.00000 0.00000
										}
									}
								}
								JOINT LThumb
								{
									OFFSET 0 0 0
									CHANNELS 3 Zrotation Yrotation Xrotation
									End Site
									{
										OFFSET 0.59725 -0.00000 0.59725
									}
								}
							}
						}
					}
				}
				JOINT RightShoulder
				{
					OFFSET 0 0 0
					CHANNELS 3 Zrotation Yrotation Xrotation
					JOINT RightArm
					{
						OFFSET -3.41935 1.44327 0.20453
						CHANNELS 3 Zrotation Yrotation Xrotation
						JOINT RightForeArm
						{
							OFFSET -5.23684 -0.00000 0.00000
							CHANNELS 3 Zrotation Yrotation Xrotation
							JOINT RightHand
							{
								OFFSET -3.38251 -0.00000 0.00000
								CHANNELS 3 Zrotation Yrotation Xrotation
								JOINT RightFingerBase
								{
									OFFSET 0 0 0
									CHANNELS 3 Zrotation Yrotation Xrotation
									JOINT RightHandIndex1
									{
										OFFSET -0.69145 -0.00000 0.00000
										CHANNELS 3 Zrotation Yrotation Xrotation
										End Site
										{
											OFFSET -0.55747 -0.00000 0.00000
										}
									}
								}
								JOINT RThumb
								{
									OFFSET 0 0 0
									CHANNELS 3 Zrotation Yrotation Xrotation
									End Site
									{
										OFFSET -0.56598 -0.00000 0.56598
									}
								}
							}
						}
					}
				}
			}
		}
	}
}
MOTION
Frames: 10
Frame Time: 0.0338983
0.00 0.00 0.00 0 0 0 0 0 0 -21 0 0 0 0 0 0 0 0 0 0 0 0 0 0 21 0 0 0 0 0 0 0 0 0 0 0 0 0 0 0 0 0 0 0 0 0 0 -16 0 0 21 0 0 11 0 0 0 -8 0 0 0 0 0 0 0 0 0 0 0 0 0 0 0 0 0 0 0 0 8 0 0 0 0 0 0 0 0 0 0 0 0 0 0 0 0 0
0.00 0.00 0.00 -45.9044 80.7981 -38.8701 0.0000 0.0000 0.0000 -6.0317 -8.9820 -24.8407 5.9056 14.3362 44.6016 1.6470 -22.3738 -26.0615 0.3158 3.6123 9.9884 0.0000 0.0000 0.0000 27.8850 2.9449 3.9885 -1.7211 -8.2593 23.5046 -1.6586 -0.9146 -24.6991 -2.1892 9.2496 -26.5792 -5.6267 0.7339 17.2411 -0.8141 0.3285 6.0910 2.2538 0.2630 -3.1429 -1.8230 0.7394 -4.6958 5.6443 1.9153 -12.3196 2.1394 1.0241 -3.2491 -0.0000 -0.0000 0.0000 -72.8378 14.9071 30.9580 34.8507 -44.7052 -14.7082 -0.0000 0.0000 -1.6313 -3.9224 8.5608 -0.5848 -7.1250 0.0000 -0.0000 -25.7760 37.2720 5.3422 -0.0000 -0.0000 0.0000 64.8238 -17.7195 59.3899 -36.8754 46.1058 -16.1502 0.0000 -0.0000 -10.2571 -11.0739 -16.5539 3.1917 7.1250 -0.0000 -0.0000 15.7413 -46.2108 -0.4822
0.00 0.00 0.00 -38.1230 80.5970 -31.3528 0.0000 0.0000 0.0000 -8.1874 -7.5313 -21.9645 5.5643 13.9924 43.2069 1.9147 -22.7180 -27.6149 0.3700 3.9072 10.8156 0.0000 0.0000 0.0000 24.5514 3.0544 -3.6686 -4.7508 -13.0976 39.7349 -1.2618 7.3162 -20.0737 -1.8258 8.4933 -24.2227 -7.2687 0.6224 17.9942 -1.5017 -0.1180 6.4575 2.5374 0.0461 -3.0862 -2.6240 0.7754 -6.3342 5.8860 1.9930 -11.6526 2.3601 1.1258 -2.7466 -0.0000 -0.0000 0.0000 -73.4669 10.9747 27.6465 33.1921 -43.4772 -13.5541 -0.0000 -0.0000 0.9449 -2.4857 7.6486 -0.3310 -7.1250 0.0000 -0.0000 -24.3639 36.5507 5.4704 -0.0000 -0.0000 0.0000 64.3555 -15.4668 60.4726 -34.8434 44.7000 -14.7031 0.0000 -0.0000 -9.6099 -10.6894 -16.1195 3.0000 7.1250 -0.0000 -0.0000 15.9417 -45.7406 -0.2990
0.00 0.00 0.00 -31.8137 80.8314 -25.5627 0.0000 0.0000 0.0000 -10.4851 -6.4533 -19.0454 5.2137 13.6205 41.7378 2.1247 -22.7589 -28.7115 0.4128 4.1244 11.4269 0.0000 0.0000 0.0000 21.0086 4.1380 -11.4184 -8.5687 -16.5221 54.5864 -0.4667 10.5954 -13.3122 -0.9904 6.3339 -17.7564 -8.4870 0.1632 19.2547 -1.9606 -1.0342 6.5577 2.9291 -0.3806 -3.5144 -2.1087 1.1169 -7.0424 5.3999 2.3628 -11.1345 2.1000 1.3101 -2.4467 0.0000 0.0000 0.0000 -73.6537 8.4730 26.1809 33.5149 -43.7221 -13.7767 -0.0000 -0.0000 2.1709 -1.0612 8.0535 -0.1487 -7.1250 0.0000 -0.0000 -23.3607 37.0236 4.9174 0.0000 0.0000 0.0000 64.3095 -14.3266 59.8077 -33.3597 43.6047 -13.6695 0.0000 -0.0000 -8.9956 -8.9571 -14.7265 2.2945 7.1250 -0.0000 -0.0000 17.0269 -44.1904 0.3509
0.00 0.00 0.00 -22.6164 78.0784 -15.7333 0.0000 0.0000 0.0000 -14.4939 -2.7696 -3.6266 2.4882 9.8165 28.3844 2.6082 -18.7270 -30.0707 0.2968 3.5030 9.6825 0.0000 0.0000 0.0000 17.0916 12.7964 -28.9879 -5.8401 -14.2716 44.3365 -0.8628 13.6921 -17.9067 -1.4223 7.5419 -21.3309 -6.7462 -1.9548 20.0651 1.3603 -3.4707 5.9190 6.0872 -1.5895 -4.2520 0.7542 3.5408 -6.4302 -1.9237 4.8788 -12.1812 -0.7673 2.5887 -2.7098 -0.0000 0.0000 0.0000 -77.1437 10.8184 30.9570 42.3955 -49.4268 -20.2405 -0.0000 0.0000 -2.2689 11.1159 6.8981 1.3518 -7.1250 0.0000 -0.0000 -13.1872 36.7210 2.7441 -0.0000 0.0000 0.0000 60.1909 -11.3639 54.9629 -26.9336 38.1158 -9.4581 0.0000 -0.0000 -0.2625 -9.9887 -15.8269 2.7501 7.1250 -0.0000 -0.0000 16.4730 -45.3720 -0.1555
0.00 0.00 0.00 -12.1525 82.8609 -5.8087 0.0000 0.0000 0.0000 -15.0487 1.1556 -5.0576 4.4745 12.7664 38.5003 -0.9523 -27.0368 -12.7302 0.0030 0.3561 0.9784 0.0000 0.0000 0.0000 15.0941 17.3922 -23.3972 -3.6753 -11.7153 34.7323 -1.0035 8.2928 -17.9610 -0.3336 3.7119 -10.2676 -3.2602 -3.5152 19.4958 4.0337 -4.6217 5.5345 7.2213 -2.1516 -4.2611 2.6778 3.9303 -6.0098 -8.5461 4.8091 -13.0536 -3.3327 2.6865 -2.8963 0.0000 0.0000 0.0000 -80.0154 14.3174 34.6156 41.3484 -48.8488 -19.4485 -0.0000 0.0000 -4.9709 8.4525 5.9122 0.8769 -7.1250 0.0000 -0.0000 -15.1740 35.5994 3.6097 0.0000 0.0000 0.0000 57.9816 -13.6292 52.6569 -27.6085 38.7533 -9.8777 0.0000 -0.0000 -0.6936 -3.9701 -15.9945 1.0956 7.1250 -0.0000 -0.0000 21.8591 -44.8218 0.1011
0.00 0.00 0.00 -21.9357 86.2961 -17.4432 0.0000 0.0000 0.0000 -12.2008 -0.9018 -10.7896 8.1104 16.1999 52.9594 -2.2062 -29.0037 -4.5985 0.0200 0.9134 2.5106 0.0000 0.0000 0.0000 16.5796 18.1250 -18.9757 -4.2940 -12.5417 37.6763 -1.2313 4.5239 -19.9672 -0.1214 2.2461 -6.1864 -0.9769 -3.5991 20.4123 4.8544 -4.1208 6.2019 6.7391 -1.8716 -4.1972 3.0502 2.9027 -5.1575 -9.5801 3.2714 -14.8191 -3.4879 2.0388 -3.3230 -0.0000 -0.0000 0.0000 -79.6292 14.7329 36.5058 39.8712 -47.9934 -18.3435 -0.0000 0.0000 -4.7502 7.9938 5.7774 0.8099 -7.1250 0.0000 -0.0000 -15.5185 35.4434 3.7579 -0.0000 -0.0000 0.0000 59.2395 -14.9249 51.1312 -27.2049 38.3739 -9.6261 0.0000 -0.0000 -0.8028 -3.5508 -15.7442 0.9646 7.1250 -0.0000 -0.0000 22.1274 -44.5414 0.2639
0.00 0.00 0.00 -31.4581 70.1359 -29.2212 0.0000 0.0000 0.0000 -0.8777 -4.1138 -31.4089 4.4182 12.6971 38.2448 0.0178 -10.8032 -7.8484 0.0419 -1.3211 -3.6328 0.0000 0.0000 0.0000 24.0282 13.6574 -3.8034 -6.6749 -15.0519 47.6336 0.6906 17.7335 -4.3586 -1.1412 6.7840 -19.0769 0.0293 3.7498 22.2884 0.6800 5.2711 6.2321 -0.6948 2.7050 -5.6421 8.3668 3.9143 1.3142 -3.9671 5.6713 -16.4051 -2.8655 2.7045 -4.7935 -0.0000 0.0000 0.0000 -71.1355 24.5213 42.1242 30.2094 -41.0722 -11.5470 -0.0000 0.0000 -4.5154 -1.6050 7.0464 -0.1969 -7.1250 0.0000 -0.0000 -23.4953 36.0610 5.5507 -0.0000 0.0000 0.0000 66.9880 -8.4468 54.7758 -50.3299 53.1277 -26.4378 0.0000 -0.0000 -8.5664 -15.6854 -14.4949 4.0204 7.1250 -0.0000 -0.0000 10.9445 -44.7276 0.0745
0.00 0.00 0.00 -160.9770 75.3908 -154.7110 0.0000 0.0000 0.0000 -7.5904 -15.4549 -34.0003 5.8241 14.2557 44.2716 -1.6557 -29.0374 -9.6138 0.1141 2.1776 5.9967 0.0000 0.0000 0.0000 19.3463 2.5206 -29.7500 -4.7628 -13.1115 39.7875 -0.9148 -0.1744 -18.1450 -0.0003 -0.1154 0.3170 4.0156 -1.1517 29.9759 4.0160 1.3047 10.7759 1.6735 1.1740 -4.3508 3.2686 -3.4840 -1.9412 -4.1118 -4.7859 -5.0085 -1.8119 -2.3714 -1.4284 -0.0000 0.0000 0.0000 -66.6854 -28.9013 51.2880 40.9410 -48.6176 -19.1423 -0.0000 0.0000 -3.7269 1.4487 6.7938 0.1714 -7.1250 0.0000 -0.0000 -21.0127 36.0275 4.9077 -0.0000 0.0000 0.0000 62.4640 -9.5948 45.0375 -38.6458 47.2468 -17.4382 0.0000 -0.0000 -4.4737 -16.4307 -16.1166 4.6799 7.1250 -0.0000 -0.0000 10.7037 -46.4614 -0.3904
0.00 0.00 0.00 -165.3990 79.2332 -146.2130 0.0000 0.0000 0.0000 -6.0557 -11.0736 -52.1333 6.5467 14.9380 47.1382 -2.5778 -32.4345 -7.1935 0.2056 2.9195 8.0548 0.0000 0.0000 0.0000 17.2994 6.3982 -49.1440 -6.4024 -14.8073 46.5762 -0.9093 4.6065 -17.0623 -0.0142 -0.7682 2.1113 0.6829 0.3124 34.8582 2.1603 2.3537 12.0267 1.0513 1.6931 -4.4621 4.4952 -1.8559 -4.1125 -3.9621 -2.6765 -7.7199 -2.0247 -1.3306 -1.8599 -0.0000 -0.0000 0.0000 -56.7130 -44.4032 45.4031 34.0499 -44.1216 -14.1478 -0.0000 0.0000 -6.4602 0.7419 9.7713 0.1259 -7.1250 0.0000 -0.0000 -22.4305 38.7430 3.6785 -0.0000 -0.0000 0.0000 58.2590 20.2003 43.5454 -33.4829 43.6979 -13.7546 0.0000 -0.0000 -3.8804 -21.7647 -17.3754 6.7993 7.1250 -0.0000 -0.0000 6.0211 -48.5069 -0.5226
